<svg xmlns="http://www.w3.org/2000/svg" xmlns:xlink="http://www.w3.org/1999/xlink" width="200" zoomAndPan="magnify" viewBox="0 0 150 149.999998" height="200" preserveAspectRatio="xMidYMid meet" version="1.0"><defs><g/><clipPath id="f842566420"><path d="M 0.667969 1.027344 L 129.675781 1.027344 L 129.675781 118.972656 L 0.667969 118.972656 Z M 0.667969 1.027344 " clip-rule="nonzero"/></clipPath><clipPath id="4f50d30b7d"><path d="M 13.417969 1.027344 L 116.582031 1.027344 C 119.960938 1.027344 123.203125 2.367188 125.59375 4.761719 C 127.988281 7.152344 129.332031 10.394531 129.332031 13.777344 L 129.332031 106.222656 C 129.332031 109.605469 127.988281 112.847656 125.59375 115.238281 C 123.203125 117.632812 119.960938 118.972656 116.582031 118.972656 L 13.417969 118.972656 C 10.039062 118.972656 6.796875 117.632812 4.402344 115.238281 C 2.011719 112.847656 0.667969 109.605469 0.667969 106.222656 L 0.667969 13.777344 C 0.667969 10.394531 2.011719 7.152344 4.402344 4.761719 C 6.796875 2.367188 10.039062 1.027344 13.417969 1.027344 Z M 13.417969 1.027344 " clip-rule="nonzero"/></clipPath><clipPath id="8281affb93"><path d="M 0.667969 0.0273438 L 129.441406 0.0273438 L 129.441406 117.972656 L 0.667969 117.972656 Z M 0.667969 0.0273438 " clip-rule="nonzero"/></clipPath><clipPath id="f1f916cf9d"><path d="M 13.417969 0.0273438 L 116.582031 0.0273438 C 119.960938 0.0273438 123.203125 1.367188 125.59375 3.761719 C 127.988281 6.152344 129.332031 9.394531 129.332031 12.777344 L 129.332031 105.222656 C 129.332031 108.605469 127.988281 111.847656 125.59375 114.238281 C 123.203125 116.632812 119.960938 117.972656 116.582031 117.972656 L 13.417969 117.972656 C 10.039062 117.972656 6.796875 116.632812 4.402344 114.238281 C 2.011719 111.847656 0.667969 108.605469 0.667969 105.222656 L 0.667969 12.777344 C 0.667969 9.394531 2.011719 6.152344 4.402344 3.761719 C 6.796875 1.367188 10.039062 0.0273438 13.417969 0.0273438 Z M 13.417969 0.0273438 " clip-rule="nonzero"/></clipPath><clipPath id="236779139e"><rect x="0" width="130" y="0" height="118"/></clipPath><clipPath id="c3ee63ddd0"><rect x="0" width="130" y="0" height="120"/></clipPath></defs><g transform="matrix(1, 0, 0, 1, 10, 15)"><g clip-path="url(#c3ee63ddd0)"><g clip-path="url(#f842566420)"><g clip-path="url(#4f50d30b7d)"><g transform="matrix(1, 0, 0, 1, 0, 1)"><g clip-path="url(#236779139e)"><g clip-path="url(#8281affb93)"><g clip-path="url(#f1f916cf9d)"><path fill="#b79d72" d="M 0.667969 0.0273438 L 129.214844 0.0273438 L 129.214844 117.972656 L 0.667969 117.972656 Z M 0.667969 0.0273438 " fill-opacity="1" fill-rule="nonzero"/></g></g></g></g></g></g><g fill="#faf8f4" fill-opacity="1"><g transform="translate(5.386065, 90.016644)"><g><path d="M 4.1875 0.4375 C 3.425781 0.4375 2.8125 0.363281 2.34375 0.21875 C 1.882812 0.0703125 1.65625 -0.175781 1.65625 -0.53125 C 1.65625 -0.9375 1.882812 -1.253906 2.34375 -1.484375 C 2.8125 -1.710938 3.539062 -1.914062 4.53125 -2.09375 C 5.988281 -2.382812 7.179688 -3.082031 8.109375 -4.1875 C 9.046875 -5.289062 9.660156 -6.863281 9.953125 -8.90625 C 10.648438 -14.132812 11.257812 -19.117188 11.78125 -23.859375 C 12.300781 -28.609375 12.722656 -32.882812 13.046875 -36.6875 C 13.367188 -40.5 13.53125 -43.628906 13.53125 -46.078125 C 13.53125 -46.546875 13.53125 -47.039062 13.53125 -47.5625 C 13.53125 -48.082031 13.5 -48.546875 13.4375 -48.953125 C 13.382812 -49.421875 13.296875 -49.898438 13.171875 -50.390625 C 13.054688 -50.890625 12.707031 -51.367188 12.125 -51.828125 C 11.082031 -52.703125 10.066406 -53.300781 9.078125 -53.625 C 8.085938 -53.945312 6.921875 -54.222656 5.578125 -54.453125 C 5.003906 -54.566406 4.539062 -54.785156 4.1875 -55.109375 C 3.84375 -55.429688 3.671875 -55.796875 3.671875 -56.203125 C 3.671875 -56.660156 3.945312 -56.929688 4.5 -57.015625 C 5.050781 -57.109375 5.757812 -57.15625 6.625 -57.15625 C 7.207031 -57.15625 8.09375 -57.125 9.28125 -57.0625 C 10.476562 -57.007812 11.773438 -56.925781 13.171875 -56.8125 C 14.566406 -56.695312 15.859375 -56.609375 17.046875 -56.546875 C 18.242188 -56.484375 19.132812 -56.453125 19.71875 -56.453125 C 20.125 -56.453125 20.472656 -56.335938 20.765625 -56.109375 C 21.054688 -55.878906 21.257812 -55.53125 21.375 -55.0625 C 21.664062 -54.019531 21.957031 -52.914062 22.25 -51.75 C 22.539062 -50.582031 22.890625 -49.445312 23.296875 -48.34375 L 37.09375 -13.359375 C 37.257812 -12.941406 37.578125 -12.691406 38.046875 -12.609375 C 38.515625 -12.523438 38.863281 -12.6875 39.09375 -13.09375 L 56.28125 -48.875 C 56.570312 -49.863281 56.863281 -50.96875 57.15625 -52.1875 C 57.445312 -53.40625 57.679688 -54.476562 57.859375 -55.40625 C 58.035156 -56.164062 58.328125 -56.546875 58.734375 -56.546875 L 61.875 -56.546875 C 63.613281 -56.546875 65.457031 -56.660156 67.40625 -56.890625 C 69.363281 -57.128906 70.832031 -57.25 71.8125 -57.25 C 72.101562 -57.25 72.484375 -57.203125 72.953125 -57.109375 C 73.421875 -57.023438 73.65625 -56.78125 73.65625 -56.375 C 73.65625 -55.96875 73.492188 -55.644531 73.171875 -55.40625 C 72.847656 -55.175781 72.253906 -54.890625 71.390625 -54.546875 C 70.628906 -54.253906 69.78125 -53.929688 68.84375 -53.578125 C 67.914062 -53.234375 67.046875 -52.882812 66.234375 -52.53125 C 65.648438 -52.300781 65.15625 -51.910156 64.75 -51.359375 C 64.34375 -50.804688 64.140625 -50.207031 64.140625 -49.5625 C 64.140625 -45.488281 64.210938 -41.660156 64.359375 -38.078125 C 64.503906 -34.503906 64.660156 -31.070312 64.828125 -27.78125 C 65.003906 -24.5 65.207031 -21.257812 65.4375 -18.0625 C 65.675781 -14.863281 65.882812 -11.609375 66.0625 -8.296875 C 66.175781 -6.484375 66.753906 -5.097656 67.796875 -4.140625 C 68.847656 -3.179688 70.453125 -2.5 72.609375 -2.09375 C 73.597656 -1.914062 74.320312 -1.710938 74.78125 -1.484375 C 75.25 -1.253906 75.484375 -0.9375 75.484375 -0.53125 C 75.484375 -0.175781 75.25 0.0703125 74.78125 0.21875 C 74.320312 0.363281 73.710938 0.4375 72.953125 0.4375 C 71.378906 0.4375 70.082031 0.390625 69.0625 0.296875 C 68.050781 0.210938 67.078125 0.140625 66.140625 0.078125 C 65.210938 0.0234375 64.082031 0 62.75 0 C 61.582031 0 60.601562 0.0234375 59.8125 0.078125 C 59.03125 0.140625 58.1875 0.210938 57.28125 0.296875 C 56.382812 0.390625 55.148438 0.4375 53.578125 0.4375 C 52.828125 0.4375 52.21875 0.363281 51.75 0.21875 C 51.28125 0.0703125 51.046875 -0.175781 51.046875 -0.53125 C 51.046875 -0.9375 51.28125 -1.269531 51.75 -1.53125 C 52.21875 -1.789062 52.945312 -1.976562 53.9375 -2.09375 C 55.613281 -2.320312 56.769531 -2.914062 57.40625 -3.875 C 58.050781 -4.84375 58.375 -6.34375 58.375 -8.375 C 58.375 -12.5625 58.332031 -16.34375 58.25 -19.71875 C 58.164062 -23.09375 58.035156 -26.421875 57.859375 -29.703125 C 57.679688 -32.992188 57.503906 -36.585938 57.328125 -40.484375 C 57.273438 -41.128906 57.101562 -41.4375 56.8125 -41.40625 C 56.519531 -41.375 56.226562 -41.066406 55.9375 -40.484375 L 35.859375 0.4375 C 35.742188 0.726562 35.484375 0.882812 35.078125 0.90625 C 34.671875 0.9375 34.410156 0.75 34.296875 0.34375 C 32.023438 -6.457031 29.59375 -13.160156 27 -19.765625 C 24.414062 -26.367188 21.492188 -33.484375 18.234375 -41.109375 C 18.117188 -41.390625 17.914062 -41.53125 17.625 -41.53125 C 17.332031 -41.53125 17.160156 -41.390625 17.109375 -41.109375 C 16.578125 -37.035156 16.09375 -33.296875 15.65625 -29.890625 C 15.226562 -26.484375 14.894531 -23.117188 14.65625 -19.796875 C 14.425781 -16.484375 14.3125 -12.851562 14.3125 -8.90625 C 14.3125 -7.332031 14.804688 -5.890625 15.796875 -4.578125 C 16.785156 -3.273438 18.179688 -2.445312 19.984375 -2.09375 C 20.972656 -1.914062 21.695312 -1.710938 22.15625 -1.484375 C 22.625 -1.253906 22.859375 -0.9375 22.859375 -0.53125 C 22.859375 -0.175781 22.625 0.0703125 22.15625 0.21875 C 21.695312 0.363281 21.085938 0.4375 20.328125 0.4375 C 18.765625 0.4375 17.585938 0.390625 16.796875 0.296875 C 16.015625 0.210938 15.316406 0.140625 14.703125 0.078125 C 14.085938 0.0234375 13.226562 0 12.125 0 C 11.082031 0 10.269531 0.0234375 9.6875 0.078125 C 9.101562 0.140625 8.429688 0.210938 7.671875 0.296875 C 6.921875 0.390625 5.757812 0.4375 4.1875 0.4375 Z M 4.1875 0.4375 "/></g></g></g><g fill="#1b365e" fill-opacity="1"><g transform="translate(84.010406, 90.016644)"><g><path d="M 17.796875 1.390625 C 15.359375 1.390625 13.101562 1.023438 11.03125 0.296875 C 8.96875 -0.421875 7.125 -1.453125 5.5 -2.796875 C 5.269531 -3.023438 5.050781 -3.285156 4.84375 -3.578125 C 4.632812 -3.867188 4.472656 -4.1875 4.359375 -4.53125 C 4.066406 -5.695312 3.878906 -7.210938 3.796875 -9.078125 C 3.710938 -10.941406 3.609375 -12.484375 3.484375 -13.703125 C 3.484375 -14.109375 3.65625 -14.410156 4 -14.609375 C 4.351562 -14.816406 4.765625 -14.921875 5.234375 -14.921875 C 5.523438 -14.921875 5.816406 -14.847656 6.109375 -14.703125 C 6.398438 -14.554688 6.570312 -14.3125 6.625 -13.96875 C 7.789062 -9.488281 9.519531 -6.285156 11.8125 -4.359375 C 14.113281 -2.441406 16.519531 -1.484375 19.03125 -1.484375 C 21.0625 -1.484375 22.863281 -1.914062 24.4375 -2.78125 C 26.007812 -3.65625 27.242188 -4.894531 28.140625 -6.5 C 29.046875 -8.101562 29.5 -9.976562 29.5 -12.125 C 29.5 -14.507812 29.101562 -16.441406 28.3125 -17.921875 C 27.53125 -19.410156 26.410156 -20.707031 24.953125 -21.8125 C 23.503906 -22.914062 21.734375 -24.109375 19.640625 -25.390625 C 17.367188 -26.847656 15.125 -28.316406 12.90625 -29.796875 C 10.695312 -31.285156 8.863281 -33.003906 7.40625 -34.953125 C 5.957031 -36.898438 5.234375 -39.269531 5.234375 -42.0625 C 5.234375 -45.03125 5.898438 -47.707031 7.234375 -50.09375 C 8.578125 -52.476562 10.597656 -54.378906 13.296875 -55.796875 C 16.003906 -57.222656 19.394531 -57.9375 23.46875 -57.9375 C 25.5625 -57.9375 27.378906 -57.71875 28.921875 -57.28125 C 30.460938 -56.851562 31.703125 -56.4375 32.640625 -56.03125 C 33.097656 -55.851562 33.488281 -55.5625 33.8125 -55.15625 C 34.132812 -54.75 34.351562 -54.3125 34.46875 -53.84375 C 34.820312 -52.625 35.203125 -51.226562 35.609375 -49.65625 C 36.015625 -48.082031 36.21875 -46.597656 36.21875 -45.203125 C 36.21875 -44.566406 35.78125 -44.25 34.90625 -44.25 C 34.382812 -44.25 33.875 -44.363281 33.375 -44.59375 C 32.882812 -44.820312 32.582031 -45.113281 32.46875 -45.46875 C 31.238281 -48.550781 29.8125 -50.90625 28.1875 -52.53125 C 26.5625 -54.164062 24.492188 -54.984375 21.984375 -54.984375 C 20.242188 -54.984375 18.613281 -54.660156 17.09375 -54.015625 C 15.582031 -53.378906 14.347656 -52.332031 13.390625 -50.875 C 12.429688 -49.414062 11.953125 -47.46875 11.953125 -45.03125 C 11.953125 -43.28125 12.519531 -41.691406 13.65625 -40.265625 C 14.789062 -38.847656 16.285156 -37.5 18.140625 -36.21875 C 20.003906 -34.9375 22.015625 -33.625 24.171875 -32.28125 C 26.210938 -31.0625 28.207031 -29.722656 30.15625 -28.265625 C 32.101562 -26.816406 33.703125 -25.085938 34.953125 -23.078125 C 36.203125 -21.078125 36.828125 -18.617188 36.828125 -15.703125 C 36.828125 -12.273438 36.039062 -9.265625 34.46875 -6.671875 C 32.894531 -4.085938 30.679688 -2.097656 27.828125 -0.703125 C 24.984375 0.691406 21.640625 1.390625 17.796875 1.390625 Z M 17.796875 1.390625 "/></g></g></g></g></g></svg>